<?xml version="1.0" encoding="utf-8"?>
<!-- Generator: Adobe Illustrator 26.3.1, SVG Export Plug-In . SVG Version: 6.00 Build 0)  -->
<svg version="1.1" id="Layer_1" xmlns="http://www.w3.org/2000/svg" xmlns:xlink="http://www.w3.org/1999/xlink" x="0px" y="0px"
	 viewBox="0 0 649.5 649.5" style="enable-background:new 0 0 649.5 649.5;" xml:space="preserve">
<style type="text/css">
	.st0{fill:#FFFFFF;}
</style>
<g>
	<path d="M628.4,249.3c-2.6-25-6.6-48.5-11.7-69.8c-5.3-22.2-11.9-41.9-19.5-58.5c-8-17.5-17.2-31.4-27.2-41.5
		c-10.1-10.1-24-19.2-41.5-27.2c-16.6-7.6-36.2-14.1-58.5-19.5c-21.3-5.1-44.8-9-69.8-11.7c-24.4-2.6-49.8-3.9-75.5-3.9
		c-25.7,0-51,1.3-75.5,3.9c-25,2.6-48.5,6.6-69.8,11.7c-22.2,5.3-41.9,11.9-58.5,19.5c-17.5,8-31.4,17.2-41.5,27.2
		c-10.1,10.1-19.2,24-27.2,41.5c-7.6,16.6-14.1,36.2-19.5,58.5c-5.1,21.3-9,44.8-11.7,69.8c-2.6,24.4-3.9,49.8-3.9,75.5
		c0,25.7,1.3,51,3.9,75.5c2.6,25,6.6,48.5,11.7,69.8c5.3,22.2,11.9,41.9,19.5,58.5c8,17.5,17.2,31.4,27.2,41.5
		c10.1,10.1,24,19.2,41.5,27.2c16.6,7.6,36.2,14.1,58.5,19.5c21.3,5.1,44.8,9,69.8,11.7c24.4,2.6,49.8,3.9,75.5,3.9
		c25.7,0,51-1.3,75.5-3.9c25-2.6,48.5-6.6,69.8-11.7c22.2-5.3,41.9-11.9,58.5-19.5c17.5-8,31.4-17.2,41.5-27.2s19.2-24,27.2-41.5
		c7.6-16.6,14.1-36.2,19.5-58.5c5.1-21.3,9-44.8,11.7-69.8c2.6-24.4,3.9-49.8,3.9-75.5C632.3,299.1,631,273.7,628.4,249.3z"/>
	<g>
		<g>
			<path class="st0" d="M448,156.5c3.6,3.6,6.5,7.9,8.3,12.9c2,5.5,5.2,10.4,9.2,14.4s8.9,7.1,14.3,9.2c4.9,1.8,9.1,4.6,12.7,8.2
				c13.2,13.2,16.6,36.3,4.6,51.7c-6.7,8.6-9.7,19.5-8.1,30.2c3.6,24-19.3,47.1-43.2,43.9c-11-1.4-22.3,1-31.1,7.8
				c-0.1,0.1-0.2,0.2-0.3,0.3c-10.9,8.2-16.7,21.4-15.4,35c10,109.1-133.2,186.8-218.1,102c-0.6-0.6-1.1-1.1-1.7-1.7
				c-0.6-0.6-1.1-1.1-1.7-1.7c-84.9-84.9-7.2-228.1,102-218.1c13.6,1.2,26.8-4.6,35-15.4c0.1-0.1,0.2-0.2,0.3-0.4
				c6.8-8.8,9.3-20.1,7.8-31.1c-3.1-24,20.1-47,44.1-43.2c10.8,1.7,21.7-1.4,30.2-8.1C412.2,140.3,434.8,143.4,448,156.5
				 M464.7,139.8L464.7,139.8c-10.4-10.4-24.3-16.9-39.1-18.3c-15.8-1.5-31.2,2.9-43.3,12.4c-3.5,2.8-7.9,4-12,3.4
				c-9.6-1.5-19.7-0.5-29.1,2.9c-8.5,3.1-16.6,8.1-23.2,14.6c-14.3,13.9-21.3,33.4-18.9,52.1c0.7,5.3-0.4,10.2-3.1,13.6
				c-0.1,0.2-0.3,0.4-0.4,0.6c-3.3,4.4-8.6,6.7-14.1,6.2c-31.7-2.9-62.9,4.9-90.2,22.5c-12.6,8.1-24,18.1-34,29.7
				c-9.8,11.4-18,24.1-24.4,37.7c-12.8,27.3-17.6,56.7-13.9,85.1c4.1,31.3,18.5,60.1,41.7,83.3c0.6,0.6,1.1,1.1,1.7,1.7
				c0.6,0.6,1.1,1.1,1.7,1.7c23.2,23.2,52,37.6,83.3,41.7c28.4,3.7,57.8-1.1,85.1-13.9c13.6-6.4,26.3-14.6,37.7-24.4
				c11.6-10,21.6-21.5,29.7-34c17.6-27.3,25.4-58.5,22.5-90.2c-0.5-5.5,1.8-10.7,6.2-14.1c0.2-0.1,0.4-0.3,0.6-0.4
				c3.4-2.6,8.3-3.7,13.6-3.1c18.6,2.4,38-4.6,51.9-18.7c6.5-6.6,11.6-14.6,14.7-23.1c3.4-9.4,4.5-19.4,3-29
				c-0.6-4.3,0.6-8.6,3.4-12.3c9.4-12.1,13.7-27.6,12-43.7c-1.6-14.9-8.2-28.9-18.5-39.2c-6.1-6.1-13.3-10.7-21.2-13.6
				c-2.2-0.8-4.1-2.1-5.8-3.7c-1.7-1.7-2.9-3.6-3.7-5.8C475.5,153.3,470.8,146,464.7,139.8L464.7,139.8z"/>
		</g>
		<g>
			<path class="st0" d="M342.2,307.3c-39.9-39.9-104.7-39.9-144.6,0s-39.9,104.7,0,144.6s104.7,39.9,144.6,0
				S382.1,347.1,342.2,307.3z M333.3,332.9c7.7,10.5,12.5,22.5,14.4,34.8h-49.2L333.3,332.9z M281.7,351.1v-49.2
				c12.4,1.9,24.4,6.7,34.8,14.4L281.7,351.1z M258.1,351.1l-34.8-34.8c10.5-7.7,22.5-12.5,34.8-14.4V351.1z M241.5,367.8h-49.2
				c1.9-12.4,6.7-24.4,14.4-34.8L241.5,367.8z M241.5,391.4l-34.8,34.8c-7.7-10.5-12.5-22.5-14.4-34.8H241.5z M258.1,408v49.2
				c-12.4-1.9-24.4-6.7-34.8-14.4L258.1,408z M281.7,408l34.8,34.8c-10.5,7.7-22.5,12.5-34.8,14.4V408z M298.4,391.4h49.2
				c-1.9,12.4-6.7,24.4-14.4,34.8L298.4,391.4z"/>
			<path class="st0" d="M352.1,206.9l30.3,30.3l-40.5,9.7c-6.3,1.5-10.3,7.9-8.7,14.2c0.5,2.2,1.6,4.1,3.1,5.6
				c2.8,2.8,6.9,4.1,11.1,3.1l42.4-10.1l-10.1,42.4c-1,4.1,0.3,8.3,3.1,11.1c1.5,1.5,3.4,2.6,5.6,3.1c6.3,1.5,12.7-2.4,14.2-8.7
				l9.7-40.5l30.3,30.3c4.6,4.6,12.1,4.6,16.7,0s4.6-12.1,0-16.7L429,250.4l40.5-9.7c6.3-1.5,10.3-7.9,8.7-14.2
				c-1.5-6.3-7.9-10.3-14.2-8.7l-42.4,10.1l10.1-42.4c1.5-6.3-2.4-12.7-8.7-14.2c-6.3-1.5-12.7,2.4-14.2,8.7l-9.7,40.5l-30.3-30.3
				c-4.6-4.6-12.1-4.6-16.7,0C347.5,194.8,347.5,202.3,352.1,206.9z"/>
		</g>
	</g>
</g>
</svg>
