<?xml version="1.0" encoding="utf-8"?>
<!-- Generator: Adobe Illustrator 26.3.1, SVG Export Plug-In . SVG Version: 6.00 Build 0)  -->
<svg version="1.1" id="Layer_1" xmlns="http://www.w3.org/2000/svg" xmlns:xlink="http://www.w3.org/1999/xlink" x="0px" y="0px"
	 viewBox="0 0 1136.3 489.1" style="enable-background:new 0 0 1136.3 489.1;" xml:space="preserve">
<style type="text/css">
	.st0{fill:#FFFFFF;stroke:#000000;stroke-miterlimit:10;}
	.st1{fill:url(#SVGID_1_);}
	.st2{fill:#FFFFFF;}
</style>
<rect x="-20.3" y="-23.5" class="st0" width="1176.9" height="536"/>
<g>
	<path d="M535.5,129.4c4.9,0,8.7,3.8,8.7,8.7v14.1c0,4.9-3.8,8.7-8.7,8.7h-11c-3.1,0-5.4,2.2-5.4,5.1v138.8c0,4.9-3.8,8.9-8.7,8.9
		h-14.8c-4.9,0-8.7-3.8-8.7-8.7V166c0-2.9-2.2-5.1-5.4-5.1h-11c-4.9,0-8.7-3.8-8.7-8.7v-14.1c0-4.9,3.8-8.7,8.7-8.7H535.5z"/>
	<path d="M592.8,313.8c-4.9,0-8.7-3.8-8.7-8.7v-57.9c0-2-1.1-3.8-3.4-4.9l-0.9-0.4c-13.6-7.2-22.8-17.7-22.8-36.7v-67.1
		c0-4.9,3.8-8.7,8.7-8.7h14.8c4.9,0,8.7,3.8,8.7,8.7v64.6c0,4.5,1.1,6.9,2.9,8.9c2,2.2,4.7,3.6,7.8,3.6s5.8-1.3,7.8-3.6
		c1.8-2,2.9-4.5,2.9-8.9v-64.6c0-4.9,3.8-8.7,8.7-8.7h14.8c4.9,0,8.7,3.8,8.7,8.7v67.1c0,19-9.2,29.5-22.8,36.7l-0.9,0.4
		c-2.2,1.1-3.4,2.9-3.4,4.9v57.9c0,4.9-3.8,8.7-8.7,8.7L592.8,313.8L592.8,313.8z"/>
	<path d="M660.1,171.8c0-16.3,4.9-26.4,13.9-33.8c8-6.5,18.1-10.3,29.1-10.3s21,3.8,29.1,10.3c8.9,7.4,13.9,17.4,13.9,33.8v8.9
		c0,4.9-3.8,8.7-8.7,8.7h-14.8c-4.9,0-8.7-3.8-8.7-8.7v-9.6c0-4.9-1.3-7.6-3.4-9.6c-2-1.8-4.7-2.9-7.4-2.9c-3.1,0-5.8,1.3-7.8,3.6
		c-1.8,2-2.9,4.5-2.9,8.9V272c0,4.5,1.1,6.9,2.9,8.9c2,2.2,4.7,3.6,7.8,3.6c2.7,0,5.4-1.1,7.4-2.9c2-2,3.4-4.7,3.4-9.6v-11.9
		c0-4.9,3.8-8.7,8.7-8.7h14.8c4.9,0,8.7,3.8,8.7,8.7v11.2c0,16.3-4.9,26.4-13.9,33.8c-8,6.5-18.1,10.3-29.1,10.3s-21-3.8-29.1-10.3
		c-8.9-7.4-13.9-17.4-13.9-33.8V171.8z"/>
	<path d="M799.4,236c-3.8,0-5.4,2.9-5.4,4.9v64.2c0,4.9-3.8,8.7-8.7,8.7h-14.8c-4.9,0-8.7-3.8-8.7-8.7v-167c0-4.9,3.8-8.7,8.7-8.7
		h14.8c4.9,0,8.7,3.8,8.7,8.7V202c0,2,1.6,4.9,5.4,4.9h10.7c3.8,0,5.4-2.9,5.4-4.9v-63.9c0-4.9,3.8-8.7,8.7-8.7H839
		c4.9,0,8.7,3.8,8.7,8.7v167c0,4.9-3.8,8.7-8.7,8.7h-14.8c-4.9,0-8.7-3.8-8.7-8.7v-64.2c0-2-1.6-4.9-5.4-4.9L799.4,236L799.4,236z"
		/>
	<path d="M923,282.3c4.9,0,8.7,3.8,8.7,8.7v13.9c0,4.9-3.8,8.9-8.7,8.9h-49.4c-4.9,0-8.7-3.8-8.7-8.7v-167c0-4.9,3.8-8.7,8.7-8.7
		H923c4.9,0,8.7,3.8,8.7,8.7v14.1c0,4.9-3.8,8.7-8.7,8.7h-20.6c-3.1,0-5.4,2.2-5.4,5.1v34.4c0,2.9,2.2,5.1,5.4,5.1h16.1
		c4.9,0,8.7,3.8,8.7,8.7v14.1c0,4.9-3.8,8.7-8.7,8.7h-16.1c-3.1,0-5.4,2.2-5.4,5.1V277c0,2.9,2.2,5.1,5.4,5.1H923V282.3z"/>
</g>
<g>
	<path d="M481.7,324.5c0.5,0,0.9,0.4,0.9,0.9v1c0,0.5-0.4,0.9-0.9,0.9h-4.6c-0.5,0-0.9,0.4-0.9,0.9V360c0,0.5-0.4,0.9-1,0.9h-1
		c-0.6,0-1-0.4-1-0.9v-31.8c0-0.6-0.4-0.9-1-0.9h-4.5c-0.5,0-1-0.4-1-0.9v-1c0-0.5,0.5-0.9,1-0.9H481.7z"/>
	<path d="M490.4,343.9c-0.5,0-0.9,0.3-0.9,0.9v15.3c0,0.5-0.4,0.9-1,0.9h-1.1c-0.5,0-1-0.4-1-0.9v-34.7c0-0.5,0.5-0.9,1-0.9h1.1
		c0.6,0,1,0.4,1,0.9v14.7c0,0.8,0.3,1,0.9,1h6.9c0.5,0,1-0.3,1-1v-14.7c0-0.5,0.5-0.9,1-0.9h1.2c0.5,0,0.9,0.4,0.9,0.9v34.7
		c0,0.5-0.4,0.9-0.9,0.9h-1.2c-0.5,0-1-0.4-1-0.9v-15.3c0-0.6-0.5-0.9-1-0.9H490.4z"/>
	<path d="M517.1,358.1c0.5,0,0.9,0.4,0.9,0.9v1c0,0.5-0.4,0.9-0.9,0.9h-9.3c-0.5,0-1-0.4-1-0.9v-34.6c0-0.5,0.5-0.9,1-0.9h9.3
		c0.5,0,0.9,0.5,0.9,1v0.9c0,0.5-0.4,0.9-0.9,0.9h-6.3c-0.6,0-0.9,0.3-0.9,0.9v12c0,0.6,0.3,0.9,0.9,0.9h6.1c0.5,0,1,0.4,1,0.9v0.9
		c0,0.5-0.4,1-1,1h-6.1c-0.6,0-0.9,0.3-0.9,0.9v12.5c0,0.6,0.3,0.9,0.9,0.9L517.1,358.1L517.1,358.1z"/>
	<path d="M542.4,358.1c0.5,0,0.9,0.4,0.9,0.9v1c0,0.5-0.4,0.9-0.9,0.9h-9.3c-0.5,0-1-0.4-1-0.9v-34.6c0-0.5,0.5-0.9,1-0.9h9.3
		c0.5,0,0.9,0.5,0.9,1v0.9c0,0.5-0.4,0.9-0.9,0.9h-6.3c-0.6,0-0.9,0.3-0.9,0.9v12c0,0.6,0.3,0.9,0.9,0.9h6.1c0.5,0,1,0.4,1,0.9v0.9
		c0,0.5-0.4,1-1,1h-6.1c-0.6,0-0.9,0.3-0.9,0.9v12.5c0,0.6,0.3,0.9,0.9,0.9L542.4,358.1L542.4,358.1z"/>
	<path d="M550.3,341.8l-0.4-0.4c-1.7-1.6-1.9-4-1.9-5.6v-10.4c0-0.6,0.3-0.9,1-0.9h1.2c0.6,0,0.9,0.4,0.9,0.9V336
		c0,3.2,1.7,5.2,4.4,5.2s4.4-2,4.4-5.2v-10.6c0-0.5,0.4-0.9,0.9-0.9h1.2c0.7,0,0.9,0.4,0.9,0.9v10.4c0,1.6-0.2,4-1.9,5.6l-0.4,0.4
		c-0.3,0.3-0.4,0.5-0.4,0.7s0.1,0.4,0.4,0.7l0.4,0.4c1.7,1.6,1.9,4,1.9,5.6V360c0,0.6-0.2,0.9-0.9,0.9h-1.2c-0.5,0-0.9-0.4-0.9-0.9
		v-11c0-3.2-1.7-5.2-4.4-5.2s-4.4,2-4.4,5.2v11c0,0.5-0.4,0.9-0.9,0.9H549c-0.7,0-1-0.4-1-0.9v-10.8c0-1.6,0.2-4,1.9-5.6l0.4-0.4
		c0.3-0.3,0.4-0.5,0.4-0.7S550.6,342.1,550.3,341.8z"/>
	<path d="M581.7,324.5c0.5,0,0.9,0.4,0.9,0.9v1c0,0.5-0.4,0.9-0.9,0.9h-4.6c-0.5,0-0.9,0.4-0.9,0.9V360c0,0.5-0.4,0.9-1,0.9h-1
		c-0.6,0-1-0.4-1-0.9v-31.8c0-0.6-0.4-0.9-1-0.9h-4.5c-0.5,0-1-0.4-1-0.9v-1c0-0.5,0.5-0.9,1-0.9H581.7z"/>
	<path d="M596.7,358.1c0.5,0,0.9,0.4,0.9,0.9v1c0,0.5-0.4,0.9-0.9,0.9h-9.3c-0.5,0-1-0.4-1-0.9v-34.6c0-0.5,0.5-0.9,1-0.9h9.3
		c0.5,0,0.9,0.5,0.9,1v0.9c0,0.5-0.4,0.9-0.9,0.9h-6.3c-0.6,0-0.9,0.3-0.9,0.9v12c0,0.6,0.3,0.9,0.9,0.9h6.1c0.5,0,1,0.4,1,0.9v0.9
		c0,0.5-0.4,1-1,1h-6.1c-0.6,0-0.9,0.3-0.9,0.9v12.5c0,0.6,0.3,0.9,0.9,0.9L596.7,358.1L596.7,358.1z"/>
	<path d="M602.3,325.7c0-0.7,0.5-1.2,1.3-1.2c0.4,0,0.8,0.2,1.2,0.5l0.1,0.1c0.3,0.3,0.4,0.4,0.8,0.4c0.4,0,1-0.4,1.5-0.6
		c0.8-0.3,1.9-0.7,3-0.7c1.9,0,3.8,0.6,5.2,2.1c1.2,1.2,1.9,3.1,1.9,6.1v27.7c0,0.5-0.4,0.9-0.9,0.9h-1.2c-0.5,0-1-0.4-1-0.9v-27
		c0-4.2-1.7-6.1-4.4-6.1c-3.3,0-4.5,2.4-4.5,6.2v26.9c0,0.5-0.4,0.9-0.9,0.9h-1.1c-0.5,0-1-0.4-1-0.9L602.3,325.7L602.3,325.7z"/>
	<path d="M625.6,335.4c0,2.7,0.6,4,3.4,5.4l3.4,1.6c3.5,1.7,5.1,3.6,5.1,7.7v3.1c0,5.2-2.8,8.1-7.4,8.1s-7.5-2.8-7.5-8.1v-2.6
		c0-0.5,0.5-0.9,1-0.9h1.1c0.5,0,1,0.4,1,0.9v1.9c0,4.1,1.5,5.9,4.4,5.9s4.4-1.9,4.4-5.9v-1.9c0-3.1-1.3-4.4-3.5-5.5l-3.5-1.7
		c-3.7-1.8-5-3.9-5-7.6v-3.6c0-5.4,2.9-8.1,7.4-8.1c4.9,0,7.5,3.2,7.5,8.1v2.7c0,0.5-0.4,0.9-0.9,0.9h-1.2c-0.5,0-0.9-0.4-0.9-0.9
		v-2c0-4.1-1.6-5.9-4.4-5.9c-2.9,0-4.4,1.9-4.4,5.9L625.6,335.4L625.6,335.4z"/>
	<path d="M643.5,325.4c0-0.5,0.4-0.9,1-0.9h1.1c0.6,0,1,0.4,1,0.9V360c0,0.5-0.4,0.9-1,0.9h-1.1c-0.5,0-1-0.4-1-0.9V325.4z"/>
	<path d="M660,324.5c4.5,0,7.5,2.6,7.5,8.3v3.4c0,1.4-0.2,3.8-1.9,5.4l-0.4,0.4c-0.3,0.3-0.4,0.5-0.4,0.7s0.1,0.4,0.4,0.7l0.4,0.4
		c1.7,1.6,1.9,4,1.9,5.6v3.5c0,5.8-3.2,8.3-7.5,8.3h-6.2c-0.5,0-1-0.4-1-0.9v-34.6c0-0.5,0.5-0.9,1-0.9h6.2V324.5z M657.1,327.3
		c-0.9,0-1.3,0.2-1.3,1V340c0,0.7,0.2,1,0.8,1h3.4c2.9,0,4.4-1.7,4.4-5.6v-2.6c0-3.9-1.5-5.6-4.2-5.6h-3.1V327.3z M656.9,343.9
		c-0.7,0-1.1,0.4-1.1,1.1v12.2c0,0.7,0.3,1,1,1h3.4c2.7,0,4.3-1.7,4.3-5.5v-3.1c0-3.9-1.7-5.6-4.3-5.6h-3.3V343.9z"/>
	<path d="M676.1,357.1c0,0.6,0.4,1,0.9,1h6.5c0.5,0,0.9,0.4,0.9,0.9v1.1c0,0.5-0.4,0.9-0.9,0.9H674c-0.5,0-1-0.4-1-0.9v-34.7
		c0-0.5,0.5-0.9,1-0.9h1.1c0.5,0,0.9,0.4,0.9,0.9L676.1,357.1L676.1,357.1z"/>
	<path d="M698.6,358.1c0.5,0,0.9,0.4,0.9,0.9v1c0,0.5-0.4,0.9-0.9,0.9h-9.3c-0.5,0-1-0.4-1-0.9v-34.6c0-0.5,0.5-0.9,1-0.9h9.3
		c0.5,0,0.9,0.5,0.9,1v0.9c0,0.5-0.4,0.9-0.9,0.9h-6.3c-0.6,0-0.9,0.3-0.9,0.9v12c0,0.6,0.3,0.9,0.9,0.9h6.1c0.5,0,1,0.4,1,0.9v0.9
		c0,0.5-0.4,1-1,1h-6.1c-0.6,0-0.9,0.3-0.9,0.9v12.5c0,0.6,0.3,0.9,0.9,0.9L698.6,358.1L698.6,358.1z"/>
	<path d="M714.7,361c-0.5,0-1-0.4-1-0.9v-34.7c0-0.5,0.5-0.9,1-0.9h6.5c4.6,0,7.4,2.8,7.4,8.1v20.3c0,5.3-2.9,8.1-7.5,8.1H714.7z
		 M721.3,358.1c2.8,0,4.3-1.8,4.3-5.9v-19.1c0-4-1.4-5.8-4.2-5.8h-3.5c-0.8,0-1.1,0.3-1.1,1v28.9c0,0.7,0.3,1,0.9,1h3.6V358.1z"/>
	<path d="M734.7,325.4c0-0.5,0.4-0.9,1-0.9h1.1c0.6,0,1,0.4,1,0.9V360c0,0.5-0.4,0.9-1,0.9h-1.1c-0.5,0-1-0.4-1-0.9V325.4z"/>
	<path d="M743.9,332.3c0-5.4,3-8.1,7.5-8.1c4.9,0,7.5,3.2,7.5,8.1v2.7c0,0.5-0.4,0.9-0.9,0.9h-1.2c-0.5,0-0.9-0.4-0.9-0.9v-2
		c0-4.1-1.6-5.9-4.4-5.9c-2.9,0-4.4,1.9-4.4,5.9v19.6c0,4,1.5,5.9,4.4,5.9c2.8,0,4.4-1.9,4.4-5.9v-1.9c0-0.5,0.4-0.9,0.9-0.9h1.2
		c0.5,0,0.9,0.4,0.9,0.9v2.6c0,5.3-2.9,8.1-7.5,8.1s-7.5-2.8-7.5-8.1V332.3z"/>
	<path d="M774.3,358.1c0.5,0,0.9,0.4,0.9,0.9v1c0,0.5-0.4,0.9-0.9,0.9H765c-0.5,0-1-0.4-1-0.9v-34.6c0-0.5,0.5-0.9,1-0.9h9.3
		c0.5,0,0.9,0.5,0.9,1v0.9c0,0.5-0.4,0.9-0.9,0.9H768c-0.6,0-0.9,0.3-0.9,0.9v12c0,0.6,0.3,0.9,0.9,0.9h6.1c0.5,0,1,0.4,1,0.9v0.9
		c0,0.5-0.4,1-1,1H768c-0.6,0-0.9,0.3-0.9,0.9v12.5c0,0.6,0.3,0.9,0.9,0.9L774.3,358.1L774.3,358.1z"/>
	<path d="M789.4,325.7c0-0.7,0.5-1.2,1.3-1.2c0.4,0,0.8,0.2,1.2,0.5l0.1,0.1c0.3,0.3,0.4,0.4,0.8,0.4c0.4,0,1-0.4,1.5-0.6
		c0.8-0.3,1.9-0.7,3-0.7c1.9,0,3.8,0.6,5.2,2.1c1.2,1.2,1.9,3.1,1.9,6.1v27.7c0,0.5-0.4,0.9-0.9,0.9h-1.2c-0.5,0-1-0.4-1-0.9v-27
		c0-4.2-1.7-6.1-4.4-6.1c-3.3,0-4.5,2.4-4.5,6.2v26.9c0,0.5-0.4,0.9-0.9,0.9h-1.1c-0.5,0-1-0.4-1-0.9L789.4,325.7L789.4,325.7z"/>
	<path d="M809.8,353.2v-21c0-5.7,3.4-8.1,7.5-8.1s7.5,2.4,7.5,8.1v21c0,5.4-3,8.1-7.5,8.1C812.7,361.3,809.8,358.7,809.8,353.2z
		 M821.7,352.5v-19.6c0-4-1.5-5.9-4.4-5.9s-4.4,1.9-4.4,5.9v19.6c0,4,1.5,5.9,4.4,5.9C820.1,358.4,821.7,356.5,821.7,352.5z"/>
	<path d="M842.8,324.5c0.5,0,0.9,0.4,0.9,0.9v1c0,0.5-0.4,0.9-0.9,0.9h-4.6c-0.5,0-0.9,0.4-0.9,0.9V360c0,0.5-0.4,0.9-1,0.9h-1
		c-0.6,0-1-0.4-1-0.9v-31.8c0-0.6-0.4-0.9-1-0.9h-4.5c-0.5,0-1-0.4-1-0.9v-1c0-0.5,0.5-0.9,1-0.9H842.8z"/>
	<path d="M862,360c0,0.5-0.4,0.9-0.9,0.9h-1.2c-0.5,0-0.9-0.4-0.9-0.9v-13.8c0-0.5-0.4-1-1-1h-6.9c-0.4,0-0.9,0.4-0.9,1V360
		c0,0.5-0.4,0.9-1,0.9h-1.1c-0.5,0-1-0.4-1-0.9v-27.8c0-5.7,3.4-8.1,7.5-8.1s7.5,2.4,7.5,8.1L862,360L862,360z M850.2,341.4
		c0,0.6,0.5,1,0.9,1h6.9c0.6,0,1-0.4,1-1v-8.5c0-4-1.5-5.9-4.4-5.9s-4.4,1.9-4.4,5.9V341.4z"/>
	<path d="M880.3,324.5c0.5,0,0.9,0.4,0.9,0.9v1c0,0.5-0.4,0.9-0.9,0.9h-4.6c-0.5,0-0.9,0.4-0.9,0.9V360c0,0.5-0.4,0.9-1,0.9h-1
		c-0.6,0-1-0.4-1-0.9v-31.8c0-0.6-0.4-0.9-1-0.9h-4.5c-0.5,0-1-0.4-1-0.9v-1c0-0.5,0.5-0.9,1-0.9H880.3z"/>
	<path d="M885.6,325.4c0-0.5,0.4-0.9,1-0.9h1.1c0.6,0,1,0.4,1,0.9V360c0,0.5-0.4,0.9-1,0.9h-1.1c-0.5,0-1-0.4-1-0.9V325.4z"/>
	<path d="M894.7,353.2v-21c0-5.7,3.4-8.1,7.5-8.1s7.5,2.4,7.5,8.1v21c0,5.4-3,8.1-7.5,8.1C897.7,361.3,894.7,358.7,894.7,353.2z
		 M906.6,352.5v-19.6c0-4-1.5-5.9-4.4-5.9s-4.4,1.9-4.4,5.9v19.6c0,4,1.5,5.9,4.4,5.9S906.6,356.5,906.6,352.5z"/>
	<path d="M915.1,325.7c0-0.7,0.5-1.2,1.3-1.2c0.4,0,0.8,0.2,1.2,0.5l0.1,0.1c0.3,0.3,0.4,0.4,0.8,0.4c0.4,0,1-0.4,1.5-0.6
		c0.8-0.3,1.9-0.7,3-0.7c1.9,0,3.8,0.6,5.2,2.1c1.2,1.2,1.9,3.1,1.9,6.1v27.7c0,0.5-0.4,0.9-0.9,0.9H928c-0.5,0-1-0.4-1-0.9v-27
		c0-4.2-1.7-6.1-4.4-6.1c-3.3,0-4.5,2.4-4.5,6.2v26.9c0,0.5-0.4,0.9-0.9,0.9h-1.1c-0.5,0-1-0.4-1-0.9V325.7z"/>
</g>
<linearGradient id="SVGID_1_" gradientUnits="userSpaceOnUse" x1="406.9908" y1="459.2578" x2="263.9211" y2="82.1952" gradientTransform="matrix(1 0 0 -1 0 492)">
	<stop  offset="0" style="stop-color:#00B176"/>
	<stop  offset="0.2434" style="stop-color:#00B179"/>
	<stop  offset="0.4202" style="stop-color:#00B182"/>
	<stop  offset="0.5759" style="stop-color:#00B092"/>
	<stop  offset="0.7194" style="stop-color:#00AFA8"/>
	<stop  offset="0.8546" style="stop-color:#00AEC5"/>
	<stop  offset="0.9819" style="stop-color:#00ADE8"/>
	<stop  offset="1" style="stop-color:#00ADEE"/>
</linearGradient>
<path class="st1" d="M442.9,298.5c0.2-0.8,0.3-1.6,0.5-2.4c0.1-0.3,0.1-0.6,0.2-0.9c0.2-0.8,0.3-1.6,0.5-2.4c0.1-0.3,0.1-0.7,0.2-1
	c0.1-0.8,0.3-1.6,0.4-2.4c0.1-0.4,0.1-0.7,0.2-1.1c0.1-0.8,0.3-1.6,0.4-2.4c0.1-0.4,0.1-0.7,0.2-1.1c0.1-0.8,0.2-1.6,0.4-2.5
	c0.1-0.4,0.1-0.7,0.1-1.1c0.1-0.8,0.2-1.7,0.3-2.6c0-0.4,0.1-0.7,0.1-1.1c0.1-0.9,0.2-1.8,0.3-2.7c0-0.2,0-0.3,0.1-0.5
	c0-0.2,0-0.4,0.1-0.5c0.1-0.8,0.2-1.7,0.2-2.5c0-0.4,0.1-0.8,0.1-1.2c0.1-0.8,0.1-1.6,0.2-2.4c0-0.4,0.1-0.9,0.1-1.3
	c0.1-0.8,0.1-1.5,0.2-2.3c0-0.5,0.1-1,0.1-1.5c0-0.7,0.1-1.5,0.1-2.2c0-0.5,0.1-1,0.1-1.5c0-0.8,0.1-1.5,0.1-2.3c0-0.5,0-1,0.1-1.4
	c0-0.8,0.1-1.6,0.1-2.4c0-0.4,0-0.9,0-1.3c0-0.8,0-1.7,0-2.5c0-0.4,0-0.8,0-1.2c0-0.9,0-1.8,0-2.7c0-0.2,0-0.4,0-0.6s0-0.4,0-0.6
	c0-0.9,0-1.8,0-2.7c0-0.4,0-0.8,0-1.2c0-0.8,0-1.7,0-2.5c0-0.4,0-0.9,0-1.3c0-0.8,0-1.6-0.1-2.4c0-0.5,0-1-0.1-1.4
	c0-0.8-0.1-1.5-0.1-2.3c0-0.5-0.1-1-0.1-1.5c0-0.7-0.1-1.5-0.1-2.2c0-0.5-0.1-1-0.1-1.5c-0.1-0.8-0.1-1.5-0.2-2.3
	c0-0.4-0.1-0.9-0.1-1.3c-0.1-0.8-0.1-1.6-0.2-2.4c0-0.4-0.1-0.8-0.1-1.2c-0.1-0.8-0.2-1.7-0.2-2.5c0-0.2,0-0.4-0.1-0.5
	c0-0.2,0-0.3-0.1-0.5c-0.1-0.9-0.2-1.8-0.3-2.7c0-0.4-0.1-0.7-0.1-1.1c-0.1-0.9-0.2-1.7-0.3-2.6c0-0.4-0.1-0.7-0.1-1.1
	c-0.1-0.8-0.2-1.6-0.4-2.5c-0.1-0.4-0.1-0.7-0.2-1.1c-0.1-0.8-0.3-1.6-0.4-2.4c-0.1-0.4-0.1-0.7-0.2-1.1c-0.1-0.8-0.3-1.6-0.4-2.4
	c-0.1-0.3-0.1-0.7-0.2-1c-0.2-0.8-0.3-1.6-0.5-2.4c-0.1-0.3-0.1-0.6-0.2-0.9c-0.2-0.8-0.3-1.6-0.5-2.4c-0.1-0.3-0.1-0.5-0.2-0.8
	c-0.2-0.8-0.4-1.6-0.6-2.4c0-0.1-0.1-0.3-0.1-0.4c-2.1-8.8-4.7-16.6-7.7-23.2c-1-2.1-2-4.1-3-5.9v-0.1c-0.2-0.3-0.4-0.6-0.5-0.9
	c0-0.1-0.1-0.1-0.1-0.2c-0.2-0.3-0.3-0.5-0.5-0.8c-0.1-0.1-0.1-0.2-0.2-0.3c-0.2-0.2-0.3-0.5-0.5-0.7c-0.1-0.1-0.1-0.2-0.2-0.3
	c-0.2-0.2-0.3-0.5-0.5-0.7c-0.1-0.1-0.1-0.2-0.2-0.3c-0.2-0.2-0.3-0.5-0.5-0.7c-0.1-0.1-0.1-0.2-0.2-0.3c-0.2-0.3-0.4-0.5-0.5-0.7
	c-0.1-0.1-0.1-0.1-0.2-0.2c-0.2-0.3-0.4-0.6-0.6-0.8c0,0,0-0.1-0.1-0.1c-1-1.2-2-2.3-3-3.4c-1-1-2.1-2-3.4-3c0,0-0.1,0-0.1-0.1
	c-0.3-0.2-0.5-0.4-0.8-0.6c-0.1-0.1-0.1-0.1-0.2-0.2c-0.2-0.2-0.5-0.4-0.7-0.5c-0.1-0.1-0.2-0.1-0.3-0.2c-0.2-0.2-0.5-0.3-0.7-0.5
	c-0.1-0.1-0.2-0.2-0.3-0.2c-0.2-0.2-0.4-0.3-0.7-0.5c-0.1-0.1-0.2-0.1-0.3-0.2c-0.2-0.2-0.5-0.3-0.7-0.5c-0.1-0.1-0.2-0.1-0.3-0.2
	c-0.3-0.2-0.5-0.3-0.8-0.5c-0.1,0-0.2-0.1-0.2-0.1c-0.3-0.2-0.6-0.3-0.9-0.5c0,0-0.1,0-0.1-0.1c-1.8-1-3.8-2-5.9-3
	c-6.6-3-14.4-5.6-23.2-7.7c-0.1,0-0.3-0.1-0.4-0.1c-0.8-0.2-1.6-0.4-2.4-0.6c-0.3-0.1-0.5-0.1-0.8-0.2c-0.8-0.2-1.6-0.3-2.4-0.5
	c-0.3-0.1-0.6-0.1-0.9-0.2c-0.8-0.2-1.6-0.3-2.4-0.5c-0.3-0.1-0.6-0.1-0.9-0.2c-0.8-0.1-1.6-0.3-2.4-0.4c-0.3-0.1-0.7-0.1-1-0.2
	c-0.8-0.1-1.6-0.3-2.5-0.4c-0.3-0.1-0.7-0.1-1-0.2c-0.8-0.1-1.7-0.2-2.5-0.4c-0.3,0-0.7-0.1-1-0.1c-0.9-0.1-1.7-0.2-2.6-0.3
	c-0.3,0-0.7-0.1-1-0.1c-0.9-0.1-1.8-0.2-2.7-0.3c-0.2,0-0.3,0-0.5-0.1c-0.2,0-0.4,0-0.5-0.1c-0.8-0.1-1.7-0.2-2.5-0.3
	c-0.4,0-0.8-0.1-1.1-0.1c-0.8-0.1-1.6-0.1-2.5-0.2c-0.4,0-0.8-0.1-1.3-0.1c-0.8-0.1-1.6-0.1-2.4-0.2c-0.5,0-0.9-0.1-1.4-0.1
	c-0.8,0-1.5-0.1-2.3-0.1c-0.5,0-1-0.1-1.4-0.1c-0.8,0-1.6-0.1-2.3-0.1c-0.5,0-0.9,0-1.4-0.1c-0.8,0-1.6-0.1-2.4-0.1
	c-0.4,0-0.9,0-1.3,0c-0.8,0-1.7,0-2.5,0c-0.4,0-0.8,0-1.2,0c-0.9,0-1.8,0-2.7,0c-0.2,0-0.4,0-0.6,0s-0.4,0-0.6,0c-0.9,0-1.8,0-2.7,0
	c-0.4,0-0.8,0-1.2,0c-0.9,0-1.7,0-2.6,0c-0.4,0-0.9,0-1.3,0c-0.8,0-1.6,0-2.4,0.1c-0.5,0-0.9,0-1.4,0.1c-0.8,0-1.6,0.1-2.3,0.1
	c-0.5,0-1,0-1.4,0.1c-0.8,0-1.5,0.1-2.3,0.1c-0.5,0-0.9,0.1-1.4,0.1c-0.8,0.1-1.6,0.1-2.4,0.2c-0.4,0-0.8,0.1-1.3,0.1
	c-0.8,0.1-1.6,0.1-2.5,0.2c-0.4,0-0.8,0.1-1.1,0.1c-0.8,0.1-1.7,0.2-2.5,0.2c-0.2,0-0.4,0-0.5,0.1c-0.2,0-0.3,0-0.5,0.1
	c-0.9,0.1-1.8,0.2-2.7,0.3c-0.3,0-0.7,0.1-1,0.1c-0.9,0.1-1.7,0.2-2.6,0.3c-0.4,0-0.7,0.1-1,0.1c-0.8,0.1-1.7,0.2-2.5,0.4
	c-0.4,0.1-0.7,0.1-1.1,0.2c-0.8,0.1-1.6,0.3-2.5,0.4c-0.3,0.1-0.7,0.1-1,0.2c-0.8,0.1-1.6,0.3-2.4,0.4c-0.3,0.1-0.6,0.1-1,0.2
	c-0.8,0.2-1.6,0.3-2.4,0.5c-0.3,0.1-0.6,0.1-0.9,0.2c-0.8,0.2-1.6,0.3-2.4,0.5c-0.3,0.1-0.5,0.1-0.8,0.2c-0.8,0.2-1.6,0.4-2.4,0.6
	c-0.1,0-0.3,0.1-0.4,0.1c-8.8,2.1-16.6,4.7-23.2,7.7c-2.1,1-4.1,2-5.9,3H240c-0.3,0.2-0.6,0.3-0.9,0.5c-0.1,0-0.1,0.1-0.2,0.1
	c-0.3,0.2-0.5,0.3-0.8,0.5c-0.1,0.1-0.2,0.1-0.3,0.2c-0.2,0.2-0.5,0.3-0.7,0.5c-0.1,0.1-0.2,0.1-0.3,0.2c-0.2,0.2-0.5,0.3-0.7,0.5
	c-0.1,0.1-0.2,0.1-0.3,0.2c-0.2,0.2-0.5,0.3-0.7,0.5c-0.1,0.1-0.2,0.1-0.3,0.2c-0.3,0.2-0.5,0.4-0.8,0.6c-0.1,0-0.1,0.1-0.2,0.1
	c-0.3,0.2-0.6,0.4-0.8,0.7c0,0,0,0-0.1,0.1c-1.2,1-2.3,2-3.4,3c-1,1-2,2.1-3,3.4l0,0c-0.2,0.3-0.5,0.6-0.7,0.9
	c0,0.1-0.1,0.1-0.1,0.2c-0.2,0.3-0.4,0.5-0.6,0.8c-0.1,0.1-0.1,0.2-0.2,0.3c-0.2,0.2-0.3,0.5-0.5,0.7c-0.1,0.1-0.1,0.2-0.2,0.3
	c-0.2,0.2-0.3,0.5-0.5,0.7c-0.1,0.1-0.1,0.2-0.2,0.3c-0.2,0.3-0.3,0.5-0.5,0.8c-0.1,0.1-0.1,0.2-0.2,0.3c-0.2,0.3-0.3,0.6-0.5,0.8
	c0,0.1-0.1,0.1-0.1,0.2c-0.2,0.3-0.4,0.6-0.6,0.9l0,0c-1,1.8-2.1,3.8-3,5.9c-3,6.6-5.6,14.4-7.7,23.2c0,0.1-0.1,0.3-0.1,0.4
	c-0.2,0.8-0.4,1.6-0.5,2.4c-0.1,0.3-0.1,0.5-0.2,0.8c-0.2,0.8-0.3,1.6-0.5,2.4c-0.1,0.3-0.1,0.6-0.2,0.9c-0.2,0.8-0.3,1.6-0.5,2.5
	c-0.1,0.3-0.1,0.6-0.2,0.9c-0.1,0.8-0.3,1.6-0.4,2.5c-0.1,0.3-0.1,0.7-0.2,1c-0.1,0.8-0.3,1.7-0.4,2.5c-0.1,0.3-0.1,0.7-0.1,1
	c-0.1,0.9-0.3,1.7-0.4,2.6c0,0.3-0.1,0.6-0.1,1c-0.1,0.9-0.2,1.8-0.3,2.7c0,0.3-0.1,0.6-0.1,0.9c-0.1,0.9-0.2,1.9-0.3,2.8
	c0,0.1,0,0.3,0,0.4c0,0.2,0,0.3,0,0.5c-0.1,0.9-0.2,1.8-0.3,2.7c0,0.3-0.1,0.7-0.1,1c-0.1,0.8-0.1,1.7-0.2,2.5
	c0,0.4-0.1,0.8-0.1,1.2c-0.1,0.8-0.1,1.6-0.2,2.4c0,0.5-0.1,0.9-0.1,1.4c0,0.8-0.1,1.5-0.1,2.3c0,0.5-0.1,1-0.1,1.5
	c0,0.8-0.1,1.5-0.1,2.3c0,0.5,0,1-0.1,1.4c0,0.8-0.1,1.6-0.1,2.4c0,0.5,0,0.9,0,1.4c0,0.8,0,1.7,0,2.5c0,0.4,0,0.8,0,1.2
	c0,0.9,0,1.7,0,2.6c0,0.2,0,0.4,0,0.6s0,0.4,0,0.6c0,0.9,0,1.7,0,2.6c0,0.4,0,0.8,0,1.2c0,0.8,0,1.7,0,2.5c0,0.5,0,0.9,0,1.4
	c0,0.8,0,1.6,0.1,2.4c0,0.5,0,1,0.1,1.4c0,0.8,0.1,1.5,0.1,2.3c0,0.5,0,1,0.1,1.5c0,0.8,0.1,1.5,0.1,2.3c0,0.5,0.1,0.9,0.1,1.4
	c0.1,0.8,0.1,1.6,0.2,2.4c0,0.4,0.1,0.8,0.1,1.2c0.1,0.8,0.1,1.7,0.2,2.5c0,0.4,0.1,0.7,0.1,1c0.1,0.9,0.2,1.8,0.3,2.7
	c0,0.2,0,0.3,0,0.5c0,0.1,0,0.3,0,0.4c0.1,0.9,0.2,1.9,0.3,2.8c0,0.3,0.1,0.6,0.1,0.9c0.1,0.9,0.2,1.8,0.3,2.7c0,0.3,0.1,0.6,0.1,1
	c0.1,0.9,0.2,1.7,0.4,2.6c0,0.3,0.1,0.7,0.1,1c0.1,0.8,0.3,1.7,0.4,2.5c0.1,0.3,0.1,0.7,0.2,1c0.1,0.8,0.3,1.6,0.4,2.5
	c0.1,0.3,0.1,0.6,0.2,0.9c0.2,0.8,0.3,1.6,0.5,2.4c0.1,0.3,0.1,0.6,0.2,0.9c0.2,0.8,0.3,1.6,0.5,2.4c0.1,0.3,0.1,0.5,0.2,0.8
	c0.2,0.8,0.4,1.6,0.5,2.4c0,0.1,0.1,0.3,0.1,0.4c2.1,8.8,4.7,16.6,7.7,23.2c1,2.1,2,4.1,3,5.9l0,0c0.2,0.3,0.4,0.6,0.6,1
	c0,0.1,0.1,0.1,0.1,0.2c0.2,0.3,0.3,0.6,0.5,0.8c0,0.1,0.1,0.2,0.1,0.2c0.2,0.3,0.3,0.5,0.5,0.8c0.1,0.1,0.1,0.2,0.2,0.3
	c0.2,0.3,0.3,0.5,0.5,0.7c0.1,0.1,0.1,0.2,0.2,0.3c0.2,0.3,0.3,0.5,0.5,0.7c0.1,0.1,0.1,0.2,0.2,0.2c0.2,0.3,0.4,0.5,0.6,0.8
	c0,0.1,0.1,0.1,0.1,0.2c0.2,0.3,0.5,0.6,0.7,0.9l0,0c1,1.2,2,2.3,3,3.4c1,1,2.1,2,3.4,3l0,0c0.3,0.2,0.6,0.4,0.9,0.7
	c0.1,0,0.1,0.1,0.2,0.1c0.3,0.2,0.5,0.4,0.8,0.6c0.1,0.1,0.2,0.1,0.3,0.2c0.2,0.2,0.5,0.3,0.7,0.5c0.1,0.1,0.2,0.1,0.3,0.2
	c0.2,0.2,0.5,0.3,0.7,0.5c0.1,0.1,0.2,0.1,0.3,0.2c0.2,0.2,0.5,0.3,0.8,0.5c0.1,0.1,0.2,0.1,0.3,0.2c0.3,0.2,0.5,0.3,0.8,0.5
	c0.1,0,0.1,0.1,0.2,0.1c0.3,0.2,0.6,0.4,0.9,0.5c0,0,0,0,0.1,0c1.8,1,3.8,2.1,5.9,3c6.6,3,14.4,5.6,23.2,7.7c0.1,0,0.3,0.1,0.4,0.1
	c0.8,0.2,1.6,0.4,2.4,0.5c0.3,0.1,0.6,0.1,0.8,0.2c0.8,0.2,1.6,0.3,2.4,0.5c0.3,0.1,0.6,0.1,0.9,0.2c0.8,0.2,1.6,0.3,2.4,0.5
	c0.3,0.1,0.7,0.1,1,0.2c0.8,0.1,1.6,0.3,2.4,0.4c0.4,0.1,0.7,0.1,1.1,0.2c0.8,0.1,1.6,0.3,2.4,0.4c0.4,0.1,0.7,0.1,1.1,0.2
	c0.8,0.1,1.6,0.2,2.5,0.4c0.4,0,0.7,0.1,1.1,0.1c0.8,0.1,1.7,0.2,2.6,0.3c0.4,0,0.7,0.1,1.1,0.1c0.9,0.1,1.8,0.2,2.6,0.3
	c0.2,0,0.4,0,0.5,0.1c0.2,0,0.4,0,0.6,0.1c0.8,0.1,1.7,0.2,2.5,0.2c0.4,0,0.8,0.1,1.2,0.1c0.8,0.1,1.6,0.1,2.4,0.2
	c0.4,0,0.9,0.1,1.3,0.1c0.8,0.1,1.6,0.1,2.3,0.2c0.5,0,0.9,0.1,1.4,0.1c0.8,0,1.5,0.1,2.3,0.1c0.5,0,1,0.1,1.5,0.1
	c0.8,0,1.5,0.1,2.3,0.1c0.5,0,1,0,1.4,0.1c0.8,0,1.6,0.1,2.4,0.1c0.4,0,0.9,0,1.3,0c0.8,0,1.7,0,2.5,0c0.4,0,0.8,0,1.2,0
	c0.9,0,1.7,0,2.6,0c0.2,0,0.4,0,0.6,0s0.4,0,0.6,0c0.9,0,1.7,0,2.6,0c0.4,0,0.8,0,1.2,0c0.8,0,1.7,0,2.5,0c0.5,0,0.9,0,1.3,0
	c0.8,0,1.6,0,2.4-0.1c0.5,0,1,0,1.4-0.1c0.8,0,1.5-0.1,2.3-0.1c0.5,0,1,0,1.5-0.1c0.8,0,1.5-0.1,2.3-0.1c0.5,0,0.9-0.1,1.4-0.1
	c0.8-0.1,1.6-0.1,2.3-0.2c0.4,0,0.9-0.1,1.3-0.1c0.8-0.1,1.6-0.1,2.4-0.2c0.4,0,0.8-0.1,1.2-0.1c0.8-0.1,1.7-0.2,2.5-0.2
	c0.2,0,0.4,0,0.6-0.1c0.2,0,0.4,0,0.5-0.1c0.9-0.1,1.8-0.2,2.6-0.3c0.4,0,0.7-0.1,1.1-0.1c0.9-0.1,1.7-0.2,2.6-0.3
	c0.4,0,0.7-0.1,1.1-0.1c0.8-0.1,1.7-0.2,2.5-0.4c0.4-0.1,0.7-0.1,1.1-0.2c0.8-0.1,1.6-0.3,2.4-0.4c0.4-0.1,0.7-0.1,1.1-0.2
	c0.8-0.1,1.6-0.3,2.4-0.4c0.3-0.1,0.7-0.1,1-0.2c0.8-0.2,1.6-0.3,2.4-0.5c0.3-0.1,0.6-0.1,0.9-0.2c0.8-0.2,1.6-0.3,2.4-0.5
	c0.3-0.1,0.5-0.1,0.8-0.2c0.8-0.2,1.6-0.4,2.4-0.5c0.1,0,0.3-0.1,0.4-0.1c8.8-2.1,16.6-4.7,23.2-7.7c2.1-1,4.1-2,5.9-3h0.1
	c0.3-0.2,0.6-0.3,0.9-0.5c0.1,0,0.1-0.1,0.2-0.1c0.3-0.2,0.5-0.3,0.8-0.5c0.1-0.1,0.2-0.1,0.3-0.2c0.2-0.2,0.5-0.3,0.7-0.5
	c0.1-0.1,0.2-0.1,0.3-0.2c0.2-0.2,0.5-0.3,0.7-0.5c0.1-0.1,0.2-0.1,0.3-0.2c0.2-0.2,0.5-0.3,0.7-0.5c0.1-0.1,0.2-0.1,0.3-0.2
	c0.3-0.2,0.5-0.4,0.8-0.6c0.1,0,0.1-0.1,0.2-0.1c0.3-0.2,0.6-0.4,0.8-0.7c0,0,0,0,0.1-0.1c1.2-1,2.3-2,3.4-3c1-1,2-2.1,3-3.4
	c0,0,0,0,0.1-0.1c0.2-0.3,0.4-0.6,0.7-0.8c0-0.1,0.1-0.1,0.1-0.2c0.2-0.2,0.4-0.5,0.6-0.8c0.1-0.1,0.1-0.2,0.2-0.3
	c0.2-0.2,0.3-0.5,0.5-0.7c0.1-0.1,0.1-0.2,0.2-0.3c0.2-0.2,0.3-0.5,0.5-0.7c0.1-0.1,0.1-0.2,0.2-0.3c0.2-0.2,0.3-0.5,0.5-0.7
	c0.1-0.1,0.1-0.2,0.2-0.3c0.2-0.3,0.3-0.5,0.5-0.8c0-0.1,0.1-0.1,0.1-0.2c0.2-0.3,0.4-0.6,0.5-0.9c0,0,0,0,0-0.1c1-1.8,2-3.8,3-5.9
	c3-6.6,5.6-14.4,7.7-23.2c0-0.1,0.1-0.3,0.1-0.4c0.2-0.8,0.4-1.6,0.6-2.4C442.8,299,442.8,298.7,442.9,298.5z"/>
<g>
	<g>
		<path class="st2" d="M373.1,180.1c1.4,1.4,2.5,3.1,3.3,5.1c0.8,2.2,2,4.1,3.6,5.7c1.6,1.6,3.5,2.8,5.6,3.6c1.9,0.7,3.6,1.8,5,3.2
			c5.2,5.2,6.5,14.3,1.8,20.3c-2.6,3.4-3.8,7.7-3.2,11.9c1.4,9.4-7.6,18.5-17,17.3c-4.3-0.6-8.8,0.4-12.2,3.1l-0.1,0.1
			c-4.3,3.2-6.6,8.4-6.1,13.8c3.9,42.9-52.4,73.5-85.8,40.1c-0.2-0.2-0.4-0.4-0.7-0.7c-0.2-0.2-0.4-0.4-0.7-0.7
			c-33.4-33.4-2.8-89.7,40.1-85.8c5.3,0.5,10.5-1.8,13.8-6.1l0.1-0.1c2.7-3.5,3.6-7.9,3.1-12.2c-1.2-9.5,7.9-18.5,17.4-17
			c4.2,0.7,8.5-0.5,11.9-3.2C359,173.7,367.9,175,373.1,180.1 M379.7,173.6L379.7,173.6c-4.1-4.1-9.5-6.6-15.4-7.2
			c-6.2-0.6-12.3,1.1-17.1,4.9c-1.4,1.1-3.1,1.6-4.7,1.3c-3.8-0.6-7.7-0.2-11.4,1.1c-3.4,1.2-6.5,3.2-9.1,5.8
			c-5.6,5.5-8.4,13.1-7.4,20.5c0.3,2.1-0.2,4-1.2,5.4c-0.1,0.1-0.1,0.1-0.2,0.2c-1.3,1.7-3.4,2.6-5.5,2.4
			c-12.5-1.1-24.7,1.9-35.5,8.8c-4.9,3.2-9.4,7.1-13.4,11.7c-3.9,4.5-7.1,9.5-9.6,14.8c-5,10.7-6.9,22.3-5.4,33.5
			c1.6,12.3,7.3,23.6,16.4,32.8c0.2,0.2,0.4,0.4,0.7,0.7c0.2,0.2,0.4,0.4,0.7,0.7c9.1,9.1,20.5,14.8,32.8,16.4
			c11.2,1.5,22.7-0.4,33.5-5.5c5.4-2.5,10.4-5.8,14.8-9.6c4.6-3.9,8.5-8.4,11.7-13.4c6.9-10.7,10-23,8.8-35.5
			c-0.2-2.2,0.7-4.2,2.4-5.5c0.1-0.1,0.1-0.1,0.2-0.2c1.3-1,3.3-1.5,5.3-1.2c7.3,1,15-1.8,20.4-7.4c2.6-2.6,4.6-5.8,5.8-9.1
			c1.3-3.7,1.8-7.6,1.2-11.4c-0.3-1.7,0.2-3.4,1.3-4.8c3.7-4.8,5.4-10.9,4.7-17.2c-0.6-5.9-3.2-11.4-7.3-15.4
			c-2.4-2.4-5.2-4.2-8.4-5.4c-0.9-0.3-1.6-0.8-2.3-1.5c-0.7-0.7-1.1-1.4-1.5-2.3C383.9,178.8,382.1,176,379.7,173.6L379.7,173.6z"/>
	</g>
	<g>
		<path class="st2" d="M331.5,239.4c-15.7-15.7-41.2-15.7-56.9,0c-15.7,15.7-15.7,41.2,0,56.9c15.7,15.7,41.2,15.7,56.9,0
			C347.2,280.6,347.2,255.1,331.5,239.4z M328,249.5c3,4.1,4.9,8.8,5.7,13.7h-19.4L328,249.5z M307.7,256.7v-19.4
			c4.9,0.7,9.6,2.6,13.7,5.7L307.7,256.7z M298.4,256.7L284.7,243c4.1-3,8.8-4.9,13.7-5.7L298.4,256.7z M291.8,263.2h-19.4
			c0.7-4.9,2.6-9.6,5.7-13.7L291.8,263.2z M291.8,272.5l-13.7,13.7c-3-4.1-4.9-8.8-5.7-13.7H291.8z M298.4,279.1v19.4
			c-4.9-0.7-9.6-2.6-13.7-5.7L298.4,279.1z M307.7,279.1l13.7,13.7c-4.1,3-8.8,4.9-13.7,5.7V279.1z M314.3,272.5h19.4
			c-0.7,4.9-2.6,9.6-5.7,13.7L314.3,272.5z"/>
		<path class="st2" d="M335.4,199.9l11.9,11.9l-15.9,3.8c-2.5,0.6-4,3.1-3.4,5.6c0.2,0.9,0.6,1.6,1.2,2.2c1.1,1.1,2.7,1.6,4.4,1.2
			l16.7-4l-4,16.7c-0.4,1.6,0.1,3.3,1.2,4.4c0.6,0.6,1.3,1,2.2,1.2c2.5,0.6,5-0.9,5.6-3.4l3.8-15.9l11.9,11.9c1.8,1.8,4.8,1.8,6.6,0
			c1.8-1.8,1.8-4.8,0-6.6l-12-11.9l15.9-3.8c2.5-0.6,4-3.1,3.4-5.6s-3.1-4-5.6-3.4l-16.7,4l4-16.7c0.6-2.5-0.9-5-3.4-5.6
			s-5,0.9-5.6,3.4l-3.8,15.9L342,193.4c-1.8-1.8-4.8-1.8-6.6,0C333.6,195.2,333.6,198.1,335.4,199.9z"/>
	</g>
</g>
</svg>
