<?xml version="1.0" encoding="UTF-8"?><svg id="Layer_1" xmlns="http://www.w3.org/2000/svg" viewBox="0 0 492.1 492.1"><defs><style>.cls-1{fill:none;}.cls-2{fill:#fff;}.cls-3{fill:#231f20;}</style></defs><ellipse class="cls-2" cx="245.34" cy="247.18" rx="171.94" ry="237.7"/><g><polygon class="cls-1" points="245.34 165.53 105.38 246.67 245.34 327.81 385.29 246.67 245.34 165.53"/><polygon class="cls-3" points="267.18 135.04 245.33 157.19 223.49 135.04 233.12 96.03 245.35 36.71 257.57 96.03 267.18 135.04"/><g><polygon class="cls-3" points="208.68 169.44 179.14 184.08 166.37 130.3 208.68 169.44"/><polygon class="cls-3" points="281.99 169.44 311.53 184.08 324.31 130.3 281.99 169.44"/></g><path class="cls-3" d="M245.34,165.53h0L105.38,246.67l139.96,81.14h0l139.96-81.14-139.96-81.14Zm34.9,112.58c-10.36,9.29-24.73,13.51-34.16,13.42-13.2-.13-28.42-6.82-36.96-15.86-7.5-7.94-9.93-21.75-9.93-33.34,0-13.27,2.81-22.81,7.56-29.59l29.74,14.88-5.3,26.98,14.13,21.07,14.13-21.07-5.59-28.46,27.95-12.95c6.87,7.44,11.16,17.03,11.16,27.77,0,15.73-4.67,29.93-12.73,37.16Z"/><g><polygon class="cls-3" points="285.13 332.39 306.62 397.14 316.5 321.06 285.13 332.39"/><polygon class="cls-3" points="343.4 297.56 322.05 308.83 354.35 362.68 356.2 308.72 343.4 297.56"/><polygon class="cls-3" points="205.55 332.39 184.05 397.14 174.18 321.06 205.55 332.39"/><polygon class="cls-3" points="147.28 297.56 168.63 308.83 136.32 362.68 134.47 308.72 147.28 297.56"/></g><polygon class="cls-3" points="245.34 339.65 220.66 358.01 245.34 461.76 270.01 358.01 245.34 339.65"/></g></svg>