<?xml version="1.0" encoding="utf-8"?>
<!-- Generator: Adobe Illustrator 26.3.1, SVG Export Plug-In . SVG Version: 6.00 Build 0)  -->
<svg version="1.1" id="Layer_1" xmlns="http://www.w3.org/2000/svg" xmlns:xlink="http://www.w3.org/1999/xlink" x="0px" y="0px"
	 viewBox="0 0 901 901" style="enable-background:new 0 0 901 901;" xml:space="preserve">
<style type="text/css">
	.st0{fill:#FFFFFF;}
</style>
<path class="st0" d="M0,0h901v901H0V0z"/>
<path d="M747.6,300.1H438.3c-18.4,0-23.5,25.4-6.4,32.4l115.5,47.7c9.1,3.8,13.1,14.5,8.5,23.3L366,770.9
	c-5.8,11.2,2.4,24.6,15,24.6h309.3c18.4,0,23.5-25.4,6.4-32.4l-115.5-47.7c-9.1-3.8-13.1-14.5-8.5-23.3l189.8-367.4
	C768.3,313.5,760.2,300.1,747.6,300.1L747.6,300.1z"/>
<path d="M359.4,490.1l99.5,60.7l50.7-98.2l-35.2-82.6l-49.7-20.5c-15.8-6.5-24.5-22.7-21.2-39.5c3.2-16.3,16.8-27.7,33.2-28.4
	l-70.5-165.6c-6-14-25.8-14-31.8,0L138,577.5c-6.6,15.5,10.5,30.3,24.9,21.5l178.5-108.9C346.9,486.7,353.9,486.7,359.4,490.1
	L359.4,490.1z"/>
</svg>
