<?xml version="1.0" encoding="UTF-8"?><svg id="Layer_1" xmlns="http://www.w3.org/2000/svg" viewBox="0 0 2362.7 2474.78"><defs><style>.cls-1{fill:#fff;}</style></defs><rect class="cls-1" width="2362.7" height="2474.78"/><g><path d="M402.39,1066.4l-102.38,240.41c-3.43,8.06,5.5,15.77,12.97,11.21l93-56.75c2.88-1.76,6.5-1.76,9.38,0l93,56.75c7.48,4.56,16.4-3.15,12.97-11.21l-102.38-240.41c-3.11-7.3-13.46-7.3-16.57,0Z"/><path d="M1105.22,1055.78h-167.81c-10.01,0-12.73,13.77-3.49,17.58l62.65,25.86c4.95,2.04,7.09,7.88,4.63,12.64l-103,199.35c-3.14,6.08,1.27,13.33,8.12,13.33h167.81c10.01,0,12.73-13.77,3.49-17.58l-62.65-25.86c-4.95-2.04-7.09-7.88-4.63-12.64l103-199.35c3.14-6.08-1.27-13.33-8.12-13.33Z"/><g><path d="M1369.51,1290.55c-27.29,26.08-65.81,39.73-105.54,39.73s-78.25-13.64-105.54-39.73c-28.49-27.29-42.13-64.61-42.13-99.92s13.64-73.43,42.13-100.32c27.29-26.08,65.81-39.73,105.54-39.73s78.25,13.64,105.54,39.73c28.49,26.88,42.13,64.61,42.13,100.32s-13.64,72.63-42.13,99.92Zm-159.71-151.28c-14.45,14.04-21.27,33.71-21.27,52.57,0,23.67,11.24,40.13,21.27,49.76,12.84,12.44,30.9,21.27,54.17,21.27s41.33-8.43,53.77-20.87,21.67-30.9,21.67-51.36-9.23-39.33-21.67-51.36c-14.85-14.04-35.31-21.27-53.77-21.27s-39.73,6.82-54.17,21.27Z"/><path d="M1451.76,1324.26v-267.65h69.42l128.01,163.72v-163.72h69.42v267.65h-69.42l-128.01-163.72v163.72h-69.42Z"/><path d="M1934.09,1279.31h-97.11l-18.06,44.94h-73.43l102.73-267.65h75.84l100.72,267.65h-74.24l-16.45-44.94Zm-18.46-52.97l-30.1-86.68-29.29,86.68h59.39Z"/></g><path d="M654.38,1056.6c20.06,0,45.75,3.21,65.41,23.68,15.25,15.65,22.87,38.92,22.87,60.19,0,22.87-8.03,42.94-21.27,55.78-10.43,10.03-24.48,16.05-36.92,18.46l83.87,109.55h-86.27l-66.61-102.73v102.73h-69.42v-267.65h108.34Zm-38.92,119.98h13.24c10.43,0,25.28-2.81,33.71-10.83,5.22-5.22,8.83-14.04,8.83-22.47s-3.21-16.85-9.23-22.47c-6.42-6.42-18.06-10.43-33.31-10.43h-13.24v66.21Z"/><path d="M863.04,1056.6v267.65h-69.42v-267.65h69.42Z"/><path d="M1369.51,1290.55c-27.29,26.08-65.81,39.73-105.54,39.73s-78.25-13.64-105.54-39.73c-28.49-27.29-42.13-64.6-42.13-99.92s13.64-73.43,42.13-100.32c27.29-26.08,65.81-39.73,105.54-39.73s78.25,13.64,105.54,39.73c28.49,26.88,42.13,64.6,42.13,100.32s-13.64,72.63-42.13,99.92Zm-159.71-151.28c-14.45,14.05-21.27,33.71-21.27,52.57,0,23.67,11.24,40.13,21.27,49.76,12.84,12.44,30.9,21.27,54.17,21.27s41.33-8.43,53.77-20.87c12.44-12.44,21.67-30.9,21.67-51.36s-9.23-39.33-21.67-51.36c-14.85-14.04-35.31-21.27-53.77-21.27s-39.73,6.82-54.17,21.27Z"/><path d="M1451.76,1324.25v-267.65h69.42l128.01,163.72v-163.72h69.42v267.65h-69.42l-128.01-163.72v163.72h-69.42Z"/><path d="M1934.09,1279.31h-97.11l-18.06,44.94h-73.43l102.73-267.65h75.84l100.72,267.65h-74.24l-16.45-44.94Zm-18.46-52.97l-30.1-86.67-29.29,86.67h59.39Z"/><g><path d="M359.44,1382.77c3.97,0,13.01,.22,18.74,5.62,4.74,4.52,5.29,10.7,5.29,13.89,0,2.87-.44,6.17-2.43,9.37-1.88,3.09-4.41,4.63-6.17,5.4,3.53,.55,7.5,2.32,10.14,4.96,2.43,2.43,4.74,6.62,4.74,13.12,0,7.39-2.87,12.02-5.73,14.88-6.06,5.84-14.88,6.29-19.41,6.29h-27.68v-73.54h22.49Zm-5.73,29.88h2.76c2.32,0,6.17-.33,8.6-2.09,1.54-1.1,2.98-3.31,2.98-6.51s-1.54-5.18-2.87-6.17c-2.43-1.88-5.73-1.88-8.82-1.88h-2.65v16.65Zm0,30.43h4.08c4.3,0,9.48-.11,12.57-2.98,1.54-1.43,2.43-3.53,2.43-6.17,0-2.98-1.21-4.96-2.32-5.95-2.98-2.76-8.71-2.76-12.13-2.76h-4.63v17.86Z"/><path d="M483.71,1397.1h-24.59v14.22h23.38v14.33h-23.38v16.32h24.59v14.33h-41.57v-73.54h41.57v14.33Z"/><path d="M547.88,1382.77l18.63,47.08,18.63-47.08h18.3l-31.2,73.54h-11.47l-31.2-73.54h18.3Z"/><path d="M693.21,1397.1h-24.59v14.22h23.38v14.33h-23.38v16.32h24.59v14.33h-41.57v-73.54h41.57v14.33Z"/><path d="M772.49,1382.77c9.37,0,15.22,3.09,18.74,6.39,3.09,2.98,6.4,8.27,6.4,16.43,0,4.63-.99,10.36-5.73,15-2.54,2.43-6.17,4.63-10.25,5.62l22.6,30.1h-20.73l-19.85-29v29h-16.98v-73.54h25.8Zm-8.82,33.41h3.86c3.09,0,7.28-.33,10.14-3.2,1.21-1.21,2.76-3.53,2.76-7.17,0-4.19-1.98-6.4-3.42-7.5-2.76-2.09-7.17-2.32-9.37-2.32h-3.97v20.18Z"/><path d="M897.75,1442.42h-27.79l-5.62,13.89h-17.64l29.66-73.54h15.55l29,73.54h-17.64l-5.51-13.89Zm-4.63-13.01l-9.04-24.7-9.15,24.7h18.19Z"/><path d="M1002.06,1416.17h36.5v.77c0,8.93-3.2,22.49-11.36,30.98s-17.53,10.03-26.24,10.03-18.3-1.43-26.9-10.25c-4.3-4.41-10.81-13.34-10.81-28.01,0-12.02,4.41-21.61,10.58-27.9,9.04-9.37,20.18-10.7,28.89-10.7,6.06,0,13.78,.99,20.62,5.51,4.96,3.31,9.26,8.49,11.91,13.12l-15.33,8.27c-1.43-2.87-3.64-5.84-6.51-7.94-3.31-2.43-7.06-3.53-11.25-3.53-6.73,0-11.69,2.21-15.22,5.95-4.08,4.3-6.29,10.58-6.29,17.42,0,8.38,3.09,13.78,6.17,16.87,4.3,4.41,9.26,5.73,14.88,5.73,7.28,0,11.14-2.54,12.79-3.97,.55-.44,3.86-3.31,5.29-8.71h-17.75v-13.67Z"/><path d="M1132.5,1397.1h-24.59v14.22h23.38v14.33h-23.38v16.32h24.59v14.33h-41.57v-73.54h41.57v14.33Z"/><path d="M1304.51,1453.99c-6.51,3.31-11.8,3.97-16.21,3.97-13.56,0-22.71-4.63-28.89-10.7-6.62-6.4-11.47-16.1-11.47-27.9s4.85-21.28,11.47-27.67c6.51-6.29,15.99-10.58,27.46-10.58,4.85,0,10.47,.99,17.64,4.08v19.63c-3.75-3.97-9.37-7.83-17.2-7.83-6.17,0-11.14,1.99-15,5.73-4.08,3.97-6.95,9.92-6.95,16.98,0,7.61,3.09,13.01,6.4,16.21,1.54,1.54,6.84,6.17,15.88,6.17,4.41,0,10.36-1.21,16.87-7.61v19.52Z"/><path d="M1422.93,1391.81c6.95,6.73,11.47,16.43,11.47,27.79,0,9.81-3.53,19.85-11.47,27.57-6.84,6.62-16.1,10.81-28.45,10.81-13.78,0-23.15-5.51-28.67-10.81-7.06-6.62-11.47-16.54-11.47-27.34s4.74-21.28,11.36-27.9c4.96-4.96,14.11-10.81,28.78-10.81,11.47,0,21.06,3.53,28.45,10.7Zm-44.66,11.25c-3.2,3.09-6.51,8.49-6.51,16.65,0,6.73,2.21,12.13,6.73,16.54,4.74,4.52,10.03,6.06,15.77,6.06,7.5,0,12.79-2.76,16.32-6.29,2.87-2.76,6.4-7.94,6.4-16.43,0-7.61-3.09-13.23-6.4-16.54-3.64-3.53-9.48-6.28-16.21-6.28s-12.13,2.32-16.1,6.28Z"/><path d="M1483.36,1456.31l11.8-73.54h14.11l18.3,43.99,18.3-43.99h14.11l11.8,73.54h-16.98l-5.84-43.88-18.41,43.88h-5.95l-18.41-43.88-5.84,43.88h-16.98Z"/><path d="M1650.08,1382.77c6.4,0,13.45,.88,19.3,6.06,6.28,5.51,7.17,12.79,7.17,17.86,0,9.26-3.53,14.44-6.29,17.31-5.84,5.95-13.56,6.51-18.74,6.51h-10.36v25.8h-16.98v-73.54h25.91Zm-8.93,33.85h6.06c2.32,0,6.39-.11,9.15-2.76,1.54-1.54,2.76-4.08,2.76-7.28s-1.1-5.62-2.76-7.17c-2.54-2.43-6.17-2.76-9.48-2.76h-5.73v19.96Z"/><path d="M1763.54,1442.42h-27.79l-5.62,13.89h-17.64l29.66-73.54h15.55l29,73.54h-17.64l-5.51-13.89Zm-4.63-13.01l-9.04-24.7-9.15,24.7h18.19Z"/><path d="M1834.66,1456.31v-73.54h14.78l39.91,47.41v-47.41h16.98v73.54h-14.77l-39.91-47.63v47.63h-16.98Z"/><path d="M1980.43,1422.02l-26.35-39.25h20.07l14.77,22.82,14.78-22.82h20.07l-26.35,39.25v34.29h-16.98v-34.29Z"/></g></g></svg>