<?xml version="1.0" encoding="utf-8"?>
<!-- Generator: Adobe Illustrator 26.3.1, SVG Export Plug-In . SVG Version: 6.00 Build 0)  -->
<svg version="1.1" id="Layer_1" xmlns="http://www.w3.org/2000/svg" xmlns:xlink="http://www.w3.org/1999/xlink" x="0px" y="0px"
	 viewBox="0 0 492.1 492.1" style="enable-background:new 0 0 492.1 492.1;" xml:space="preserve">
<style type="text/css">
	.st0{fill:#FFFFFF;stroke:#000000;stroke-miterlimit:10;}
	.st1{fill:#FFFFFF;}
	.st2{fill:none;}
</style>
<rect class="st0" width="492.1" height="492.1"/>
<ellipse class="st1" cx="245.3" cy="247.2" rx="171.9" ry="237.7"/>
<g>
	<polygon class="st2" points="245.3,165.5 105.4,246.7 245.3,327.8 385.3,246.7 	"/>
	<polygon points="267.2,135 245.3,157.2 223.5,135 233.1,96 245.4,36.7 257.6,96 	"/>
	<g>
		<polygon points="208.7,169.4 179.1,184.1 166.4,130.3 		"/>
		<polygon points="282,169.4 311.5,184.1 324.3,130.3 		"/>
	</g>
	<path d="M245.3,165.5L245.3,165.5l-140,81.1l140,81.1l0,0l140-81.1L245.3,165.5L245.3,165.5z M280.2,278.1
		c-10.4,9.3-24.7,13.5-34.2,13.4c-13.2-0.1-28.4-6.8-37-15.9c-7.5-7.9-9.9-21.8-9.9-33.3c0-13.3,2.8-22.8,7.6-29.6l29.7,14.9
		l-5.3,27l14.1,21.1l14.1-21.1l-5.6-28.5l28-12.9c6.9,7.4,11.2,17,11.2,27.8C293,256.7,288.3,270.9,280.2,278.1L280.2,278.1z"/>
	<g>
		<polygon points="285.1,332.4 306.6,397.1 316.5,321.1 		"/>
		<polygon points="343.4,297.6 322,308.8 354.4,362.7 356.2,308.7 		"/>
		<polygon points="205.6,332.4 184.1,397.1 174.2,321.1 		"/>
		<polygon points="147.3,297.6 168.6,308.8 136.3,362.7 134.5,308.7 		"/>
	</g>
	<polygon points="245.3,339.6 220.7,358 245.3,461.8 270,358 	"/>
</g>
</svg>
