<?xml version="1.0" encoding="UTF-8"?><svg id="Layer_1" xmlns="http://www.w3.org/2000/svg" viewBox="0 0 999 1000"><defs><style>.cls-1{fill:#fad0b3;}.cls-2{fill:#49104c;}</style></defs><rect class="cls-2" width="1000" height="1000"/><g><path class="cls-1" d="M722.29,681.92c23.71,0,38.49-25.69,26.58-46.19l-59.22-101.91-150.62-260.76-28.84,50,179.73,309.78h-24.32l-166.78-289.35-28.78,49.86,166.84,288.57h85.41Z"/><path class="cls-1" d="M527.55,253.55l-2.46-4.24c-11.87-20.49-41.48-20.43-53.27,.11l-221.79,386.45c-11.76,20.5,3.03,46.05,26.67,46.05h336.66l-28.23-48.96-276.53,.1,218.95-379.52Z"/><polygon class="cls-1" points="473.73 567.22 501.15 614 341.83 614.23 458.1 412.64 574.39 614.28 520.22 614.26 458.06 506.44 423 567.22 473.73 567.22"/></g></svg>