<?xml version="1.0" encoding="UTF-8"?><svg id="Layer_1" xmlns="http://www.w3.org/2000/svg" viewBox="0 0 1024 1024"><defs><style>.cls-1{fill:#fff;}.cls-2{fill:#231f20;}</style></defs><rect class="cls-1" width="1024" height="1024"/><g><path class="cls-2" d="M140.75,748.03V275.97h153.69v58.88h-79.34v354.79h79.34v58.38H140.75Z"/><path class="cls-2" d="M633.51,340.84l19.46,345.8h-71.36l-4.24-147.95c-.5-18.3-.62-34.18-.37-47.65,.25-13.47,.79-26.4,1.62-38.8,.83-12.39,1.83-26.32,2.99-41.79l-38.92,217.31h-61.88l-41.92-217.31c1.33,14.47,2.41,28.07,3.24,40.79,.83,12.72,1.37,26.07,1.62,40.04,.25,13.97,.21,30.19-.12,48.65l-2.5,146.71h-70.11l19.46-345.8h84.08l38.42,223.55,36.43-223.55h84.08Z"/><path class="cls-2" d="M883.25,275.97v472.05h-153.69v-58.88h79.34V334.86h-79.34v-58.88h153.69Z"/></g></svg>